<svg xmlns="http://www.w3.org/2000/svg" viewBox="0 0 64 64" role="img" aria-label="NovelShare">
  <path
    d="M32 12c-4.8-3.3-10.4-4.4-16-4.4a6.6 6.6 0 0 0-6.6 6.6v28.2c0 1.1.9 2 2 2H18c4.7 0 9.3 1.5 13.2 4.2 3.9-2.7 8.5-4.2 13.2-4.2h6.6c1.1 0 2-.9 2-2V14.2A6.6 6.6 0 0 0 48 7.6C42.4 7.6 36.8 8.7 32 12Zm0 6.9c4.3-2.6 9.2-3.9 14.2-3.9 1.1 0 2 .9 2 2v24.1h-4.6c-4.5 0-8.9 1.1-12.8 3.2v-25.4Zm-4 25.4c-3.9-2.1-8.3-3.2-12.8-3.2H10.6V17c0-1.1.9-2 2-2 5 0 9.9 1.3 14.2 3.9v25.4Z"
    fill="#2f7dfc"
    transform="translate(32 32) scale(1.14) translate(-32 -32)"
  />
</svg>
